<?xml version="1.0" encoding="UTF-8" standalone="no"?>
<svg
   xmlns:dc="http://purl.org/dc/elements/1.1/"
   xmlns:cc="http://creativecommons.org/ns#"
   xmlns:rdf="http://www.w3.org/1999/02/22-rdf-syntax-ns#"
   xmlns:svg="http://www.w3.org/2000/svg"
   xmlns="http://www.w3.org/2000/svg"
   xmlns:sodipodi="http://sodipodi.sourceforge.net/DTD/sodipodi-0.dtd"
   xmlns:inkscape="http://www.inkscape.org/namespaces/inkscape"
   version="1.1"
   width="482"
   height="482"
   id="svg667"
   viewBox="0 0 482 482"
   sodipodi:docname="favicon.svg"
   inkscape:version="0.92.4 (5da689c313, 2019-01-14)"
   inkscape:export-filename="C:\sagatech\sgs_frontend\public\static\favicon.png"
   inkscape:export-xdpi="96"
   inkscape:export-ydpi="96">
  <metadata
     id="metadata673">
    <rdf:RDF>
      <cc:Work
         rdf:about="">
        <dc:format>image/svg+xml</dc:format>
        <dc:type
           rdf:resource="http://purl.org/dc/dcmitype/StillImage" />
        <dc:title></dc:title>
      </cc:Work>
    </rdf:RDF>
  </metadata>
  <defs
     id="defs671" />
  <sodipodi:namedview
     pagecolor="#ffffff"
     bordercolor="#666666"
     borderopacity="1"
     objecttolerance="10"
     gridtolerance="10"
     guidetolerance="10"
     inkscape:pageopacity="0"
     inkscape:pageshadow="2"
     inkscape:window-width="1366"
     inkscape:window-height="705"
     id="namedview669"
     showgrid="false"
     inkscape:zoom="0.79291007"
     inkscape:cx="117.48142"
     inkscape:cy="292.74368"
     inkscape:window-x="-8"
     inkscape:window-y="-8"
     inkscape:window-maximized="1"
     inkscape:current-layer="svg667" />
  <g
     transform="matrix(6.0110378,0,0,6.0110378,-3020.0484,-2477.7182)"
     id="Layer1000">
    <path
       d="m 566.1899,438.5329 c 0.2261,0.5037 0.7321,0.8546 1.32,0.8546 0.0453,0 0.0899,-0.002 0.1341,-0.006 h 10.0442 l 10e-4,-0.002 c 0.0496,0.005 0.1,0.008 0.151,0.008 0.7986,0 1.4461,-0.6475 1.4461,-1.4462 0,-0.2626 -0.07,-0.509 -0.1924,-0.7213 l 0.0169,-0.0261 c -5.4607,-14.7288 -20.1686,-24.8328 -36.8428,-24.8328 -21.9428,0 -39.731,17.7882 -39.731,39.731 0,1.8464 0.0735,3.6739 0.3642,5.4458 l 0.0282,0.0294 -2e-4,0.0156 c 0,0.7834 0.623,1.4213 1.4006,1.4453 l 1e-4,10e-5 h 0.002 c 0.0144,4e-4 0.0288,7e-4 0.0432,7e-4 0.0148,0 0.0294,-3e-4 0.044,-7e-4 l 29.4064,-0.01 c 0.0234,10e-4 0.0469,0.002 0.0706,0.002 0.7986,0 1.4461,-0.6475 1.4461,-1.4461 0,-0.0404 -0.002,-0.0803 -0.005,-0.1198 l 0.004,-0.005 v -10.7929 c 4e-4,-0.0143 7e-4,-0.0287 7e-4,-0.0431 0,-0.7983 -0.6468,-1.4455 -1.445,-1.4461 l -0.002,-0.002 h -16.224 -10e-4 c -0.023,10e-4 -0.0461,0.002 -0.0694,0.002 -0.7986,0 -1.4461,-0.6475 -1.4461,-1.4461 0,-0.1705 0.0296,-0.334 0.0837,-0.4858 l -10e-4,-0.002 c 3.283,-10.9647 13.9479,-18.6316 26.0308,-18.6316 10.2492,0 19.335,5.5276 23.9139,13.9258 z"
       style="fill:#037eab;fill-rule:evenodd"
       id="path658"
       inkscape:connector-curvature="0" />
    <path
       d="m 518.8301,466.0424 c -0.2261,-0.5037 -0.7321,-0.8546 -1.32,-0.8546 -0.0452,0 -0.0899,0.002 -0.134,0.006 h -10.0442 l -0.001,0.002 c -0.0497,-0.005 -0.1001,-0.008 -0.1511,-0.008 -0.7986,0 -1.4461,0.6475 -1.4461,1.4461 0,0.2627 0.0701,0.5091 0.1925,0.7214 l -0.017,0.0261 c 5.4607,14.7288 20.1686,24.8328 36.8428,24.8328 21.9428,0 39.7311,-17.7882 39.7311,-39.731 0,-1.8464 -0.0735,-3.6739 -0.3643,-5.4458 l -0.0282,-0.0295 2e-4,-0.0155 c 0,-0.7834 -0.623,-1.4213 -1.4006,-1.4453 l -10e-5,-10e-5 h -0.002 c -0.0144,-4e-4 -0.0287,-7e-4 -0.0432,-7e-4 -0.0147,0 -0.0294,3e-4 -0.044,7e-4 l -29.4064,0.01 c -0.0234,-0.001 -0.0469,-0.002 -0.0706,-0.002 -0.7986,0 -1.4461,0.6475 -1.4461,1.4461 0,0.0404 0.002,0.0803 0.005,0.1198 l -0.004,0.005 v 10.7928 c -4e-4,0.0144 -7e-4,0.0287 -7e-4,0.0432 0,0.7983 0.6469,1.4455 1.445,1.4461 l 0.002,0.002 h 16.2241 10e-4 c 0.0229,-0.001 0.0461,-0.002 0.0693,-0.002 0.7986,0 1.4461,0.6475 1.4461,1.4461 0,0.1705 -0.0295,0.334 -0.0837,0.4858 l 0.001,0.002 c -3.2831,10.9647 -13.948,18.6316 -26.0309,18.6316 -10.2492,0 -19.335,-5.5276 -23.9139,-13.9258 z"
       style="fill:#1aa2dc;fill-rule:evenodd"
       id="path660"
       inkscape:connector-curvature="0" />
  </g>
</svg>
